# xmcd
#
# Track frame offsets: 
#        182
#        12645
#        25972
#        38937
#        54427
#        70405
#        83077
#        101440
#        144737
#        159080
#        179790
#        189580
#        199337
#        212847
#
# Disc length: 3104 seconds
#
# Revision: 2
# Processed by: cddbd v1.4PL0 Copyright (c) Steve Scherf et al.
# Submitted via: ExactAudioCopy v0.90b4
#
DISCID=cb0c1e0e
DTITLE=Various Artist - Holiday Classics Vol II
DYEAR=2000
DGENRE=Xmas
TTITLE0=Crosby, Bing - Its begining to look like Christmas
TTITLE1=Fitzgerald, Ella - Sleigh Ride
TTITLE2=Gaye, Marvin - Purple Snowflakes
TTITLE3=Kitt, Eartha - Santa Baby
TTITLE4=Hathaway, Donny - This Christmas
TTITLE5=Robinson, Smokey and The Miracles - Jingle Bells
TTITLE6=Vibraphonic - Someday at Christmas
TTITLE7=Gordon, Dexter - Have Yourself a Merry Little Christmas
TTITLE8=Fitzgerald, Ella and Louis Armstrong - Ive Got My Love To Keep
TTITLE8=Me Warm
TTITLE9=Williams, Joe - Let it Snow
TTITLE10=Horne, Lena - Winter Wonderland
TTITLE11=Mathis, Johnny - Jingle Bell Rock
TTITLE12=Ross, Diana and The Supremes - Silver Bells
TTITLE13=Vandross, Luther - May Christmas Bring you Happiness
EXTD=
EXTT0=
EXTT1=
EXTT2=
EXTT3=
EXTT4=
EXTT5=
EXTT6=
EXTT7=
EXTT8=
EXTT9=
EXTT10=
EXTT11=
EXTT12=
EXTT13=
PLAYORDER=
